<svg xmlns="http://www.w3.org/2000/svg" viewBox="0 0 177 37.93">
    <path d="M26.49,32.06q-4.08,4.21-12.16,4.21A20.36,20.36,0,0,1,10.2,36a2.85,2.85,0,0,1-1.85-1.14,4.79,4.79,0,0,1-.52-2.47V5.94a5.58,5.58,0,0,1,.44-2.52A2.36,2.36,0,0,1,9.82,2.29,13.15,13.15,0,0,1,13.19,2q8.93,0,13.14,4.41T30.56,19Q30.56,27.83,26.49,32.06Zm4.73-3.28A19.88,19.88,0,0,0,33.49,19q0-9.23-4.89-13.55T13.19,1.08H0V2a7.11,7.11,0,0,1,3.89.81c.82.55,1.21,1.59,1.21,3.15V32.31c0,1.55-.39,2.59-1.18,3.14A7.11,7.11,0,0,1,0,36.27v.88H14.65A22.08,22.08,0,0,0,24.71,35,14.9,14.9,0,0,0,31.22,28.78Z" fill="#e5554f"></path>
    <path d="M40.86,19.17a20.69,20.69,0,0,1,2-9.4,15.14,15.14,0,0,1,5.55-6.24,14.34,14.34,0,0,1,7.73-2.19,13.57,13.57,0,0,1,7.5,2.16,14.77,14.77,0,0,1,5.21,6.21,22.15,22.15,0,0,1,1.91,9.46,21.35,21.35,0,0,1-1.91,9.25,14.66,14.66,0,0,1-5.22,6.16,13.54,13.54,0,0,1-7.49,2.16,14.19,14.19,0,0,1-7.68-2.19,15.37,15.37,0,0,1-5.57-6.18A19.7,19.7,0,0,1,40.86,19.17Zm-.58-9.76a18.33,18.33,0,0,0-2.68,9.76,18.72,18.72,0,0,0,2.51,9.58,18.44,18.44,0,0,0,16,9.18,16.8,16.8,0,0,0,8.71-2.45A18.84,18.84,0,0,0,74,19.17,20.1,20.1,0,0,0,71.7,9.38,17.24,17.24,0,0,0,56.17.16,17.69,17.69,0,0,0,47.25,2.6,19.44,19.44,0,0,0,40.28,9.41Z" fill="#e5554f"></path>
    <path d="M114.2,2.31A11.6,11.6,0,0,1,117.36,2v-.9h-6.18L96.29,33.65,80.78,1.08H74.39V2a7.91,7.91,0,0,1,4,.79c.85.53,1.27,1.59,1.26,3.19v26.3c0,1.58-.42,2.64-1.26,3.19a7.62,7.62,0,0,1-4,.82v.88h11.9v-.88a11.29,11.29,0,0,1-3.17-.33,2.64,2.64,0,0,1-1.58-1.16,4.92,4.92,0,0,1-.5-2.47V8.4L94.9,37.15h1.18l13.3-28.7V32.36a3.39,3.39,0,0,1-1.29,3.09,7.64,7.64,0,0,1-4,.82v.88h13.31v-.88a11.6,11.6,0,0,1-3.22-.33,2.6,2.6,0,0,1-1.59-1.16,5,5,0,0,1-.46-2.47V5.94a4.86,4.86,0,0,1,.49-2.49A2.63,2.63,0,0,1,114.2,2.31Z" fill="#e5554f"></path>
    <path d="M149.07,1.08h-11.9V2q5.25,0,5.25,1.9a2.75,2.75,0,0,1-.36,1.19l-8.24,14.53-7.36-13.3c-.32-.55-.62-1.12-.9-1.7a3.18,3.18,0,0,1-.39-1.29c0-.48.31-.82.92-1a11.48,11.48,0,0,1,3.2-.3V1.08H117V2a8.34,8.34,0,0,1,3,.45,3.65,3.65,0,0,1,1.63,1.13,16.46,16.46,0,0,1,1.39,2.31l.84,1.5,7.68,13.76V32.31c0,1.54-.39,2.59-1.19,3.14a7,7,0,0,1-3.91.82v.88h12.86v-.88a11.29,11.29,0,0,1-3.12-.31,2.26,2.26,0,0,1-1.49-1.16,5.45,5.45,0,0,1-.44-2.49v-11L143,5.91a8.58,8.58,0,0,1,2.42-2.77A6,6,0,0,1,149.07,2Z" fill="#e5554f"></path>
    <path d="M152.06,23.75l7.06-18,6.59,18Zm20.38,10q-.8-1.62-2.45-6.16L159.94,0h-.46a3.08,3.08,0,0,1-.71,1.16,2.05,2.05,0,0,1-1.06.69l.88,2.47-10,25.1a10,10,0,0,0-.4,1.08c-.62,1.51-1.12,2.63-1.49,3.38a4.66,4.66,0,0,1-1.52,1.75,4.48,4.48,0,0,1-2.5.65v.87h10.5v-.93a9.59,9.59,0,0,1-3.68-.49A1.74,1.74,0,0,1,148.43,34a13.15,13.15,0,0,1,1.26-4.23l2-4.94h14.44l1.58,4.27a21.29,21.29,0,0,1,1.55,5.52c0,.72-.25,1.18-.75,1.34a10.19,10.19,0,0,1-2.81.25v.93H177v-.93a6.82,6.82,0,0,1-2.89-.44,4.38,4.38,0,0,1-1.67-2.05Z" fill="#e5554f"></path>
</svg>